<?xml version="1.0" encoding="utf-8"?>
<!-- Generator: Adobe Illustrator 22.1.0, SVG Export Plug-In . SVG Version: 6.00 Build 0)  -->
<svg version="1.1" id="レイヤー_1" xmlns="http://www.w3.org/2000/svg" xmlns:xlink="http://www.w3.org/1999/xlink" x="0px"
	 y="0px" viewBox="0 0 307 155" style="enable-background:new 0 0 307 155;" xml:space="preserve">
<style type="text/css">
	.st0{fill:url(#SVGID_1_);}
	.st1{fill:url(#SVGID_2_);}
	.st2{fill:url(#SVGID_3_);}
	.st3{fill:url(#SVGID_4_);}
	.st4{fill:#191919;}
</style>
<g>
	<g>
		
			<linearGradient id="SVGID_1_" gradientUnits="userSpaceOnUse" x1="198.2411" y1="-16.7693" x2="244.8974" y2="-16.7693" gradientTransform="matrix(0.7071 0.7071 -0.7071 0.7071 -38.2752 -118.0354)">
			<stop  offset="0" style="stop-color:#84FAB0"/>
			<stop  offset="1" style="stop-color:#8FD3F4"/>
		</linearGradient>
		<path class="st0" d="M123.2,45.4c-3.3,0.4-6.3,0.2-9-0.4c-2.7-0.6-5.2-2.2-7.6-4.6c-1.5-1.5-2.8-3.2-3.7-5.1
			c-0.9-1.9-1.5-3.7-1.6-5.7c-0.2-1.9,0.1-3.8,0.7-5.7c0.6-1.9,1.8-3.7,3.4-5.3c1.3-1.3,2.6-2.2,4.1-2.9c1.5-0.6,3-1,4.6-1.2
			c1.6-0.1,3.2-0.1,4.8,0.3c1.6,0.3,3.2,0.7,4.8,1.3c0-2.4,0.2-4.7,0.7-6.8c0.5-2.2,1.6-4.1,3.3-5.9c1.3-1.3,2.8-2.2,4.3-2.8
			c1.5-0.5,3.1-0.7,4.6-0.6c1.5,0.2,3.1,0.6,4.5,1.4c1.5,0.8,2.8,1.8,4.1,3c1.2,1.2,2.2,2.5,3,4c0.7,1.4,1.2,2.9,1.4,4.4
			c0.2,1.5,0,3-0.5,4.5c-0.5,1.5-1.5,2.9-2.8,4.2c-1.1,1.1-2.4,1.9-3.8,2.4c-1.4,0.5-2.8,0.7-4.3,0.7c-1.5,0-2.9-0.2-4.4-0.5
			c-1.5-0.3-2.9-0.7-4.3-1.1l-0.5,15.7l12.9-3.3l4.8,4.8l-18,4.2l-0.2,16.7l-5.9-5.9L123.2,45.4z M123.9,21.5
			c-1.2-0.4-2.4-0.7-3.6-0.9c-1.2-0.3-2.5-0.4-3.7-0.4c-1.2,0-2.4,0.2-3.6,0.6c-1.2,0.4-2.2,1.1-3.2,2c-1,1-1.7,2.1-2.1,3.3
			c-0.4,1.2-0.6,2.4-0.6,3.7c0,1.3,0.3,2.5,0.8,3.7c0.5,1.2,1.2,2.3,2.2,3.2c0.9,0.9,1.9,1.6,3,2.1c1.1,0.5,2.1,0.9,3.3,1.1
			c1.1,0.2,2.3,0.3,3.5,0.3c1.2,0,2.4-0.1,3.7-0.2L123.9,21.5z M129.6,17.9c1.1,0.3,2.1,0.6,3.3,0.9c1.1,0.3,2.2,0.5,3.3,0.6
			c1.1,0.1,2.2-0.1,3.2-0.4c1.1-0.3,2-0.9,2.9-1.8c1.3-1.3,1.9-2.8,1.8-4.5c-0.2-1.6-0.9-3.1-2.1-4.4c-1.4-1.4-3.1-2.2-5-2.4
			s-3.6,0.5-5.1,2c-1,1-1.6,2.1-1.8,3.4c-0.2,1.3-0.4,2.6-0.4,3.8L129.6,17.9z"/>
	</g>
	<g>
		
			<linearGradient id="SVGID_2_" gradientUnits="userSpaceOnUse" x1="58.2505" y1="48.3419" x2="104.9067" y2="48.3419" gradientTransform="matrix(0.7071 -0.7071 0.7071 0.7071 33.3826 94.1528)">
			<stop  offset="0" style="stop-color:#84FAB0"/>
			<stop  offset="1" style="stop-color:#8FD3F4"/>
		</linearGradient>
		<path class="st1" d="M143.9,77.8c0.4,3.3,0.2,6.3-0.4,9c-0.6,2.7-2.2,5.2-4.6,7.6c-1.5,1.5-3.2,2.8-5.1,3.7
			c-1.9,0.9-3.7,1.5-5.7,1.6c-1.9,0.2-3.8-0.1-5.7-0.7c-1.9-0.6-3.7-1.8-5.3-3.4c-1.3-1.3-2.2-2.6-2.9-4.1c-0.6-1.5-1-3-1.2-4.6
			c-0.1-1.6-0.1-3.2,0.3-4.8c0.3-1.6,0.7-3.2,1.3-4.8c-2.4,0-4.7-0.2-6.8-0.7c-2.2-0.5-4.1-1.6-5.9-3.3c-1.3-1.3-2.2-2.8-2.8-4.3
			c-0.5-1.5-0.7-3.1-0.6-4.6c0.2-1.5,0.6-3.1,1.4-4.5c0.8-1.5,1.8-2.8,3-4.1c1.2-1.2,2.5-2.2,4-3c1.4-0.7,2.9-1.2,4.4-1.4
			c1.5-0.2,3,0,4.5,0.5c1.5,0.5,2.9,1.5,4.2,2.8c1.1,1.1,1.9,2.4,2.4,3.8c0.5,1.4,0.7,2.8,0.7,4.3c0,1.5-0.2,2.9-0.5,4.4
			c-0.3,1.5-0.7,2.9-1.1,4.3l15.7,0.5l-3.3-12.9l4.8-4.8l4.2,18l16.7,0.2l-5.9,5.9L143.9,77.8z M119.9,77c-0.4,1.2-0.7,2.4-0.9,3.6
			c-0.3,1.2-0.4,2.5-0.4,3.7c0,1.2,0.2,2.4,0.6,3.6c0.4,1.2,1.1,2.2,2,3.2c1,1,2.1,1.7,3.3,2.1c1.2,0.4,2.4,0.6,3.7,0.6
			c1.3,0,2.5-0.3,3.7-0.8c1.2-0.5,2.3-1.2,3.2-2.2c0.9-0.9,1.6-1.9,2.1-3c0.5-1.1,0.9-2.1,1.1-3.3c0.2-1.1,0.3-2.3,0.3-3.5
			c0-1.2-0.1-2.4-0.2-3.7L119.9,77z M116.4,71.3c0.3-1.1,0.6-2.1,0.9-3.3c0.3-1.1,0.5-2.2,0.6-3.3c0.1-1.1-0.1-2.2-0.4-3.2
			c-0.3-1.1-0.9-2-1.8-2.9c-1.3-1.3-2.8-1.9-4.5-1.8c-1.6,0.2-3.1,0.9-4.4,2.1c-1.4,1.4-2.2,3.1-2.4,5c-0.2,1.9,0.5,3.6,2,5.1
			c1,1,2.1,1.6,3.4,1.8c1.3,0.2,2.6,0.4,3.8,0.4L116.4,71.3z"/>
	</g>
	<g>
		
			<linearGradient id="SVGID_3_" gradientUnits="userSpaceOnUse" x1="248.6593" y1="-78.6187" x2="295.3156" y2="-78.6187" gradientTransform="matrix(-0.7071 0.7071 -0.7071 -0.7071 318.9826 -216.5668)">
			<stop  offset="0" style="stop-color:#84FAB0"/>
			<stop  offset="1" style="stop-color:#8FD3F4"/>
		</linearGradient>
		<path class="st2" d="M163.6,24.2c-0.4-3.3-0.2-6.3,0.4-9c0.6-2.7,2.2-5.2,4.6-7.6c1.5-1.5,3.2-2.8,5.1-3.7
			c1.9-0.9,3.7-1.5,5.7-1.6c1.9-0.2,3.8,0.1,5.7,0.7c1.9,0.6,3.7,1.8,5.3,3.4c1.3,1.3,2.2,2.6,2.9,4.1c0.6,1.5,1,3,1.2,4.6
			c0.1,1.6,0.1,3.2-0.3,4.8c-0.3,1.6-0.7,3.2-1.3,4.8c2.4,0,4.7,0.2,6.8,0.7c2.2,0.5,4.1,1.6,5.9,3.3c1.3,1.3,2.2,2.8,2.8,4.3
			c0.5,1.5,0.7,3.1,0.6,4.6c-0.2,1.5-0.6,3.1-1.4,4.5c-0.8,1.5-1.8,2.8-3,4.1c-1.2,1.2-2.5,2.2-4,3c-1.4,0.7-2.9,1.2-4.4,1.4
			c-1.5,0.2-3,0-4.5-0.5c-1.5-0.5-2.9-1.5-4.2-2.8c-1.1-1.1-1.9-2.4-2.4-3.8c-0.5-1.4-0.7-2.8-0.7-4.3c0-1.5,0.2-2.9,0.5-4.4
			c0.3-1.5,0.7-2.9,1.1-4.3l-15.7-0.5l3.3,12.9l-4.8,4.8l-4.2-18l-16.7-0.2l5.9-5.9L163.6,24.2z M187.6,25c0.4-1.2,0.7-2.4,0.9-3.6
			c0.3-1.2,0.4-2.5,0.4-3.7c0-1.2-0.2-2.4-0.6-3.6c-0.4-1.2-1.1-2.2-2-3.2c-1-1-2.1-1.7-3.3-2.1c-1.2-0.4-2.4-0.6-3.7-0.6
			c-1.3,0-2.5,0.3-3.7,0.8c-1.2,0.5-2.3,1.2-3.2,2.2c-0.9,0.9-1.6,1.9-2.1,3c-0.5,1.1-0.9,2.1-1.1,3.3s-0.3,2.3-0.3,3.5
			c0,1.2,0.1,2.4,0.2,3.7L187.6,25z M191.1,30.7c-0.3,1.1-0.6,2.1-0.9,3.3c-0.3,1.1-0.5,2.2-0.6,3.3c-0.1,1.1,0.1,2.2,0.4,3.2
			c0.3,1.1,0.9,2,1.8,2.9c1.3,1.3,2.8,1.9,4.5,1.8c1.6-0.2,3.1-0.9,4.4-2.1c1.4-1.4,2.2-3.1,2.4-5c0.2-1.9-0.5-3.6-2-5.1
			c-1-1-2.1-1.6-3.4-1.8c-1.3-0.2-2.6-0.4-3.8-0.4L191.1,30.7z"/>
	</g>
	<g>
		
			<linearGradient id="SVGID_4_" gradientUnits="userSpaceOnUse" x1="164.6306" y1="-105.6999" x2="211.2868" y2="-105.6999" gradientTransform="matrix(-0.7071 -0.7071 0.7071 -0.7071 387.2054 133.9458)">
			<stop  offset="0" style="stop-color:#84FAB0"/>
			<stop  offset="1" style="stop-color:#8FD3F4"/>
		</linearGradient>
		<path class="st3" d="M186.7,57.2c3.3-0.4,6.3-0.2,9,0.4c2.7,0.6,5.2,2.2,7.6,4.6c1.5,1.5,2.8,3.2,3.7,5.1c0.9,1.8,1.5,3.7,1.6,5.7
			c0.2,1.9-0.1,3.8-0.7,5.7c-0.6,1.9-1.8,3.7-3.4,5.3c-1.3,1.3-2.6,2.2-4.1,2.9c-1.5,0.6-3,1-4.6,1.2c-1.6,0.1-3.2,0.1-4.8-0.3
			c-1.6-0.3-3.2-0.7-4.8-1.3c0,2.4-0.2,4.7-0.7,6.8c-0.5,2.2-1.6,4.1-3.3,5.9c-1.3,1.3-2.8,2.2-4.3,2.8c-1.5,0.5-3.1,0.7-4.6,0.6
			c-1.5-0.2-3.1-0.6-4.5-1.4c-1.5-0.8-2.8-1.8-4.1-3c-1.2-1.2-2.2-2.5-3-4c-0.7-1.4-1.2-2.9-1.4-4.4c-0.2-1.5,0-3,0.5-4.5
			c0.5-1.5,1.5-2.9,2.8-4.2c1.1-1.1,2.4-1.9,3.8-2.4c1.4-0.5,2.8-0.7,4.3-0.7c1.5,0,2.9,0.2,4.4,0.5c1.5,0.3,2.9,0.7,4.3,1.1
			l0.5-15.7l-12.9,3.3l-4.8-4.8l18-4.2l0.2-16.7l5.9,5.9L186.7,57.2z M185.9,81.1c1.2,0.4,2.4,0.7,3.6,0.9c1.2,0.3,2.5,0.4,3.7,0.4
			c1.2,0,2.4-0.2,3.6-0.6c1.2-0.4,2.2-1.1,3.2-2c1-1,1.7-2.1,2.1-3.3c0.4-1.2,0.6-2.4,0.6-3.7c0-1.3-0.3-2.5-0.8-3.7
			c-0.5-1.2-1.2-2.3-2.2-3.2c-0.9-0.9-1.9-1.6-3-2.1c-1.1-0.5-2.1-0.9-3.3-1.1c-1.1-0.2-2.3-0.3-3.5-0.3c-1.2,0-2.4,0.1-3.7,0.2
			L185.9,81.1z M180.2,84.7c-1.1-0.3-2.1-0.6-3.3-0.9c-1.1-0.3-2.2-0.5-3.3-0.6c-1.1-0.1-2.2,0.1-3.2,0.4c-1.1,0.3-2,0.9-2.9,1.8
			c-1.3,1.3-1.9,2.8-1.8,4.5c0.2,1.6,0.9,3.1,2.1,4.4c1.4,1.4,3.1,2.2,5,2.4c1.9,0.2,3.6-0.5,5.1-2c1-1,1.6-2.1,1.8-3.4
			c0.2-1.3,0.4-2.6,0.4-3.8L180.2,84.7z"/>
	</g>
</g>
<g>
	<path class="st4" d="M0.1,122.7h12.3c1.2,0,2.4,0.1,3.5,0.4c1.2,0.3,2.2,0.7,3.1,1.4c0.9,0.6,1.6,1.5,2.2,2.5
		c0.6,1,0.8,2.2,0.8,3.7c0,1.8-0.5,3.3-1.5,4.4c-1,1.2-2.3,2-4,2.5v0.1c2,0.3,3.6,1,4.9,2.3c1.3,1.3,1.9,3,1.9,5.1
		c0,1.7-0.3,3.2-1,4.4c-0.7,1.2-1.6,2.1-2.7,2.8c-1.1,0.7-2.4,1.2-3.8,1.5c-1.4,0.3-2.9,0.5-4.4,0.5H0.1V122.7z M5.7,135.6h5
		c1.9,0,3.3-0.4,4.3-1.1c1-0.7,1.5-1.8,1.5-3.2c0-1.4-0.5-2.4-1.5-3c-1-0.6-2.6-0.9-4.7-0.9H5.7V135.6z M5.7,149.7h5.1
		c0.7,0,1.5-0.1,2.3-0.2c0.8-0.1,1.6-0.3,2.3-0.6c0.7-0.3,1.3-0.8,1.7-1.4c0.5-0.6,0.7-1.5,0.7-2.5c0-1.7-0.6-2.8-1.7-3.5
		c-1.1-0.7-2.8-1-5.1-1H5.7V149.7z"/>
	<path class="st4" d="M51,143.9c0,0.2,0,0.5,0,0.7c0,0.2,0,0.5,0,0.7H34.7c0.1,0.8,0.3,1.5,0.6,2.1c0.3,0.6,0.8,1.2,1.4,1.7
		c0.6,0.5,1.2,0.8,1.9,1.1c0.7,0.3,1.5,0.4,2.2,0.4c1.3,0,2.5-0.2,3.4-0.7c0.9-0.5,1.7-1.2,2.3-2l3.6,2.9c-2.1,2.9-5.2,4.3-9.2,4.3
		c-1.7,0-3.2-0.3-4.6-0.8c-1.4-0.5-2.6-1.3-3.6-2.2c-1-1-1.8-2.1-2.4-3.5c-0.6-1.4-0.9-3-0.9-4.7c0-1.7,0.3-3.3,0.9-4.7
		c0.6-1.4,1.4-2.6,2.4-3.6c1-1,2.2-1.8,3.6-2.3c1.4-0.6,2.9-0.8,4.5-0.8c1.5,0,2.9,0.2,4.1,0.7c1.3,0.5,2.4,1.2,3.3,2.2
		c0.9,1,1.6,2.2,2.2,3.6C50.8,140.3,51,142,51,143.9z M45.7,141.5c0-0.7-0.1-1.3-0.3-2c-0.2-0.6-0.5-1.2-0.9-1.7
		c-0.4-0.5-0.9-0.9-1.6-1.1c-0.6-0.3-1.4-0.4-2.3-0.4c-1.6,0-3,0.5-4.1,1.5c-1.1,1-1.7,2.2-1.9,3.7H45.7z"/>
	<path class="st4" d="M69.9,132.3c1.4,0,2.6,0.2,3.6,0.7c1,0.5,1.8,1.1,2.5,1.9c0.6,0.8,1.1,1.7,1.4,2.8c0.3,1,0.4,2.1,0.4,3.2v13.4
		h-5.4v-11.8c0-0.6,0-1.3-0.1-1.9s-0.3-1.3-0.6-1.8c-0.3-0.6-0.7-1-1.2-1.4c-0.5-0.4-1.2-0.5-2.1-0.5c-0.9,0-1.6,0.2-2.2,0.5
		c-0.6,0.3-1.1,0.8-1.6,1.3c-0.4,0.6-0.7,1.2-0.9,1.9c-0.2,0.7-0.3,1.4-0.3,2.1v11.7h-5.4v-33.8h5.4v15.3h0.1
		c0.2-0.4,0.5-0.9,0.9-1.3c0.4-0.4,0.9-0.8,1.4-1.2c0.5-0.3,1.1-0.6,1.8-0.8C68.4,132.4,69.1,132.3,69.9,132.3z"/>
	<path class="st4" d="M99.2,151.7h-0.1c-0.5,1-1.4,1.7-2.6,2.3c-1.2,0.6-2.5,0.9-4.1,0.9c-0.9,0-1.8-0.1-2.7-0.3
		c-0.9-0.2-1.8-0.6-2.6-1.1c-0.8-0.5-1.4-1.2-2-2.1c-0.5-0.8-0.8-1.9-0.8-3.2c0-1.6,0.5-2.9,1.4-3.8c0.9-1,2.1-1.7,3.5-2.2
		c1.4-0.5,3-0.8,4.8-1c1.7-0.2,3.5-0.2,5.1-0.2v-0.5c0-1.3-0.5-2.3-1.5-3c-1-0.6-2.1-1-3.5-1c-1.1,0-2.2,0.2-3.3,0.7
		c-1,0.5-1.9,1.1-2.6,1.7l-2.8-3.3c1.2-1.1,2.6-2,4.2-2.5c1.6-0.6,3.2-0.8,4.9-0.8c1.9,0,3.5,0.3,4.7,0.8c1.2,0.5,2.2,1.2,2.9,2.1
		c0.7,0.9,1.2,1.8,1.5,2.9c0.3,1.1,0.4,2.1,0.4,3.2v13.1h-5V151.7z M99.1,144.6h-1.2c-0.9,0-1.8,0-2.7,0.1c-1,0.1-1.8,0.2-2.6,0.5
		c-0.8,0.3-1.5,0.6-2,1.1c-0.5,0.5-0.8,1.1-0.8,1.9c0,0.5,0.1,0.9,0.3,1.3c0.2,0.3,0.5,0.6,0.9,0.8c0.4,0.2,0.8,0.4,1.2,0.4
		c0.4,0.1,0.9,0.1,1.3,0.1c1.8,0,3.2-0.5,4.2-1.5c1-1,1.4-2.3,1.4-4V144.6z"/>
	<path class="st4" d="M109.1,132.9h5.9l5.6,15.7h0.1l5.7-15.7h5.7l-8.5,21.5h-5.7L109.1,132.9z"/>
	<path class="st4" d="M157.5,143.9c0,0.2,0,0.5,0,0.7c0,0.2,0,0.5,0,0.7h-16.3c0.1,0.8,0.3,1.5,0.6,2.1c0.3,0.6,0.8,1.2,1.4,1.7
		c0.6,0.5,1.2,0.8,1.9,1.1c0.7,0.3,1.5,0.4,2.2,0.4c1.3,0,2.5-0.2,3.4-0.7c0.9-0.5,1.7-1.2,2.3-2l3.6,2.9c-2.1,2.9-5.2,4.3-9.2,4.3
		c-1.7,0-3.2-0.3-4.6-0.8c-1.4-0.5-2.6-1.3-3.6-2.2c-1-1-1.8-2.1-2.4-3.5c-0.6-1.4-0.9-3-0.9-4.7c0-1.7,0.3-3.3,0.9-4.7
		c0.6-1.4,1.4-2.6,2.4-3.6c1-1,2.2-1.8,3.6-2.3c1.4-0.6,2.9-0.8,4.5-0.8c1.5,0,2.9,0.2,4.1,0.7c1.3,0.5,2.4,1.2,3.3,2.2
		c0.9,1,1.6,2.2,2.2,3.6C157.2,140.3,157.5,142,157.5,143.9z M152.1,141.5c0-0.7-0.1-1.3-0.3-2c-0.2-0.6-0.5-1.2-0.9-1.7
		c-0.4-0.5-0.9-0.9-1.6-1.1c-0.6-0.3-1.4-0.4-2.3-0.4c-1.6,0-3,0.5-4.1,1.5c-1.1,1-1.7,2.2-1.9,3.7H152.1z"/>
	<path class="st4" d="M164.5,132.9h5.1v3.6h0.1c0.6-1.3,1.4-2.3,2.5-3c1.1-0.8,2.3-1.2,3.8-1.2c0.2,0,0.4,0,0.7,0
		c0.2,0,0.4,0.1,0.6,0.1v4.9c-0.4-0.1-0.7-0.1-0.9-0.2c-0.3,0-0.5,0-0.7,0c-1.2,0-2.2,0.2-3,0.7c-0.7,0.4-1.3,1-1.7,1.6
		c-0.4,0.6-0.7,1.3-0.8,1.9c-0.1,0.7-0.2,1.2-0.2,1.6v11.5h-5.4V132.9z"/>
	<path class="st4" d="M195.8,122.7H207c2.1,0,4.1,0.3,6.2,0.8c2.1,0.5,4,1.4,5.6,2.7c1.7,1.2,3,2.9,4.1,4.9c1,2,1.6,4.5,1.6,7.5
		c0,2.8-0.5,5.2-1.6,7.2c-1,2-2.4,3.6-4.1,4.9c-1.7,1.3-3.5,2.2-5.6,2.8c-2.1,0.6-4.2,0.9-6.2,0.9h-11.2V122.7z M206.1,149.5
		c1.5,0,2.9-0.2,4.4-0.5c1.5-0.3,2.8-0.9,4-1.7c1.2-0.8,2.1-1.9,2.9-3.3c0.7-1.4,1.1-3.2,1.1-5.3c0-2.3-0.4-4.1-1.1-5.5
		c-0.7-1.4-1.7-2.5-2.9-3.4c-1.2-0.8-2.5-1.4-4-1.7c-1.5-0.3-2.9-0.4-4.4-0.4h-4.7v21.9H206.1z"/>
	<path class="st4" d="M244.8,151.7h-0.1c-0.5,1-1.4,1.7-2.6,2.3c-1.2,0.6-2.5,0.9-4.1,0.9c-0.9,0-1.8-0.1-2.7-0.3
		c-0.9-0.2-1.8-0.6-2.6-1.1c-0.8-0.5-1.4-1.2-2-2.1c-0.5-0.8-0.8-1.9-0.8-3.2c0-1.6,0.5-2.9,1.4-3.8c0.9-1,2.1-1.7,3.5-2.2
		c1.4-0.5,3-0.8,4.8-1c1.7-0.2,3.5-0.2,5.1-0.2v-0.5c0-1.3-0.5-2.3-1.5-3c-1-0.6-2.1-1-3.5-1c-1.1,0-2.2,0.2-3.3,0.7
		c-1,0.5-1.9,1.1-2.6,1.7l-2.8-3.3c1.2-1.1,2.6-2,4.2-2.5c1.6-0.6,3.2-0.8,4.9-0.8c1.9,0,3.5,0.3,4.7,0.8c1.2,0.5,2.2,1.2,2.9,2.1
		c0.7,0.9,1.2,1.8,1.5,2.9s0.4,2.1,0.4,3.2v13.1h-5V151.7z M244.7,144.6h-1.2c-0.9,0-1.8,0-2.7,0.1c-1,0.1-1.8,0.2-2.6,0.5
		c-0.8,0.3-1.5,0.6-2,1.1c-0.5,0.5-0.8,1.1-0.8,1.9c0,0.5,0.1,0.9,0.3,1.3c0.2,0.3,0.5,0.6,0.9,0.8c0.4,0.2,0.8,0.4,1.2,0.4
		c0.4,0.1,0.9,0.1,1.3,0.1c1.8,0,3.2-0.5,4.2-1.5c1-1,1.4-2.3,1.4-4V144.6z"/>
	<path class="st4" d="M254.8,137.2v-4.3h3.8v-6.2h5.3v6.2h5.4v4.3h-5.4v10c0,1,0.2,1.7,0.5,2.4c0.3,0.6,1.1,0.9,2.3,0.9
		c0.4,0,0.7,0,1.2-0.1c0.4-0.1,0.8-0.2,1.1-0.3l0.2,4.2c-0.5,0.2-1,0.3-1.7,0.4c-0.7,0.1-1.3,0.2-1.9,0.2c-1.4,0-2.6-0.2-3.5-0.6
		c-0.9-0.4-1.6-1-2.1-1.7c-0.5-0.7-0.9-1.5-1.1-2.4c-0.2-0.9-0.3-1.9-0.3-2.9v-10H254.8z"/>
	<path class="st4" d="M288.2,151.7H288c-0.5,1-1.4,1.7-2.6,2.3c-1.2,0.6-2.5,0.9-4.1,0.9c-0.9,0-1.8-0.1-2.7-0.3
		c-0.9-0.2-1.8-0.6-2.6-1.1c-0.8-0.5-1.4-1.2-2-2.1c-0.5-0.8-0.8-1.9-0.8-3.2c0-1.6,0.5-2.9,1.4-3.8c0.9-1,2.1-1.7,3.5-2.2
		c1.4-0.5,3-0.8,4.8-1c1.7-0.2,3.5-0.2,5.1-0.2v-0.5c0-1.3-0.5-2.3-1.5-3c-1-0.6-2.1-1-3.5-1c-1.1,0-2.2,0.2-3.3,0.7
		c-1,0.5-1.9,1.1-2.6,1.7l-2.8-3.3c1.2-1.1,2.6-2,4.2-2.5c1.6-0.6,3.2-0.8,4.9-0.8c1.9,0,3.5,0.3,4.7,0.8c1.2,0.5,2.2,1.2,2.9,2.1
		c0.7,0.9,1.2,1.8,1.5,2.9s0.4,2.1,0.4,3.2v13.1h-5V151.7z M288.1,144.6h-1.2c-0.9,0-1.8,0-2.7,0.1c-1,0.1-1.8,0.2-2.6,0.5
		c-0.8,0.3-1.5,0.6-2,1.1c-0.5,0.5-0.8,1.1-0.8,1.9c0,0.5,0.1,0.9,0.3,1.3c0.2,0.3,0.5,0.6,0.9,0.8c0.4,0.2,0.8,0.4,1.2,0.4
		c0.4,0.1,0.9,0.1,1.3,0.1c1.8,0,3.2-0.5,4.2-1.5c1-1,1.4-2.3,1.4-4V144.6z"/>
	<path class="st4" d="M300.3,151.3c0-1,0.4-1.8,1.1-2.5c0.7-0.7,1.5-1,2.5-1c1,0,1.8,0.3,2.5,1c0.7,0.7,1.1,1.5,1.1,2.4
		c0,1-0.4,1.8-1.1,2.5c-0.7,0.7-1.5,1-2.5,1c-0.5,0-0.9-0.1-1.4-0.3c-0.4-0.2-0.8-0.4-1.1-0.7c-0.3-0.3-0.6-0.7-0.8-1.1
		C300.3,152.2,300.3,151.7,300.3,151.3z"/>
</g>
</svg>
